<?xml version="1.0" encoding="UTF-8" standalone="no"?>
<svg
   xmlns:ns3="http://ns.adobe.com/AdobeIllustrator/10.0/"
   xmlns:dc="http://purl.org/dc/elements/1.1/"
   xmlns:cc="http://creativecommons.org/ns#"
   xmlns:rdf="http://www.w3.org/1999/02/22-rdf-syntax-ns#"
   xmlns:svg="http://www.w3.org/2000/svg"
   xmlns="http://www.w3.org/2000/svg"
   version="1.1"
   id="svg4356"
   viewBox="0 0 132 53.411947"
   height="15.074039mm"
   width="37.253334mm">
  <defs
     id="defs4358" />
  <metadata
     id="metadata4361">
    <rdf:RDF>
      <cc:Work
         rdf:about="">
        <dc:format>image/svg+xml</dc:format>
        <dc:type
           rdf:resource="http://purl.org/dc/dcmitype/StillImage" />
        <dc:title></dc:title>
      </cc:Work>
    </rdf:RDF>
  </metadata>
  <path
     style="overflow:visible;fill:#f87329;fill-opacity:1;stroke:none"
     d="m 70.00966,0.001911 c -1.17244,-0.01813 -2.33913,0.09274 -3.45978,0.331839 -1.6405,0.349992 -3.3557,1.728386 -5.00834,1.728386 -1.41016,0 -2.88986,-1.130136 -4.23783,-1.525983 -2.20035,-0.646146 -5.06948,-0.64653 -7.31988,-0.221965 -9.74811,1.839048 -12.38868,12.868569 -9.07159,21.009274 2.18106,5.352645 6.65858,9.575943 11.38313,12.711974 2.53449,1.682333 6.78365,5.070958 10.01668,4.468076 2.6689,-0.497679 5.48216,-2.4786 7.70513,-3.953397 C 77.4501,29.618713 83.51542,22.942664 83.50117,13.61833 83.49517,9.922681 82.36476,6.297014 79.61248,3.673139 77.09418,1.272423 73.527,0.056351 70.00966,0.001911 Z M 53.39923,3.562527 c 1.49475,0.05292 2.99155,0.414276 4.28975,1.06322 1.16216,0.580925 2.50265,2.067745 3.85256,2.067745 1.45284,0 2.94312,-1.667098 4.23782,-2.249836 3.5209,-1.584769 7.86902,-0.991023 10.78118,1.551557 9.36728,8.178419 -1.06673,20.641287 -8.46964,25.462312 -1.71944,1.119749 -3.74766,2.627422 -5.77885,3.088066 -2.73717,0.620769 -6.37696,-2.398528 -8.47564,-3.868358 -7.05934,-4.944046 -16.18855,-16.933586 -7.31386,-24.68202 1.19052,-1.039421 2.68646,-1.8349 4.2318,-2.189642 0.85176,-0.195523 1.74803,-0.274778 2.64488,-0.243044 z"
     id="path6" />
  <path
     ns3:knockout="Off"
     d="m 61.47274,13.706267 c -1.2963,-2.363771 -3.50799,-3.304493 -6.07526,-3.304493 -3.73684,0 -6.7111,2.643308 -6.7111,7.118096 0,4.550111 2.79611,7.118107 6.83856,7.118107 2.59333,0 4.8043,-1.423767 6.02457,-3.58404 l -2.84753,-1.449115 c -0.63584,1.525156 -1.60119,1.982844 -2.82146,1.982844 -2.1103,0 -3.07565,-1.754 -3.07565,-4.067066 0,-2.313076 0.81327,-4.067795 3.07565,-4.067795 0.60977,0 1.83003,0.330952 2.54192,1.855378 l 3.0503,-1.601916 z"
     id="path49-3"
     style="clip-rule:evenodd;overflow:visible;fill:#f87329;fill-opacity:1;fill-rule:evenodd" />
  <path
     ns3:knockout="Off"
     d="m 74.71244,13.706267 c -1.29701,-2.363771 -3.50799,-3.304493 -6.07525,-3.304493 -3.73684,0 -6.71183,2.643308 -6.71183,7.118096 0,4.550111 2.79684,7.118107 6.83856,7.118107 2.59334,0 4.8043,-1.423767 6.02457,-3.58404 l -2.84753,-1.449115 c -0.63512,1.525156 -1.60119,1.982844 -2.82146,1.982844 -2.10957,0 -3.07637,-1.754 -3.07637,-4.067066 0,-2.313076 0.81399,-4.067795 3.07637,-4.067795 0.60977,0 1.83004,0.330952 2.54265,1.855378 l 3.05029,-1.601916 z"
     id="path51-6"
     style="clip-rule:evenodd;overflow:visible;fill:#f87329;fill-opacity:1;fill-rule:evenodd" />
  <path
     id="path4289"
     style="font-style:normal;font-variant:normal;font-weight:normal;font-stretch:normal;font-size:17.5px;line-height:125%;font-family:Helvetica;-inkscape-font-specification:Helvetica;letter-spacing:0px;word-spacing:0px;overflow:visible;fill:#f87329;fill-opacity:1;stroke:none;stroke-width:1px;stroke-linecap:butt;stroke-linejoin:miter;stroke-opacity:1"
     d="m 6.00421,43.769847 q -0.0674,-0.513684 -0.34527,-0.926324 -0.4042,-0.555785 -1.25473,-0.555785 -1.21264,0 -1.65895,1.204207 -0.23579,0.640006 -0.23579,1.701058 0,1.010526 0.23579,1.625264 0.42947,1.145263 1.61685,1.145263 0.8421,0 1.19579,-0.454741 0.35367,-0.454731 0.42947,-1.178948 l 2.45052,0 q -0.0843,1.094737 -0.79157,2.071578 -1.12842,1.574737 -3.34317,1.574737 -2.21473,0 -3.25894,-1.313677 Q 0,47.348793 0,45.251946 q 0,-2.366313 1.15368,-3.679998 1.15369,-1.313683 3.18316,-1.313683 1.72631,0 2.82105,0.774736 1.10316,0.774737 1.30526,2.736846 l -2.45894,0 z m -1.62526,-3.536846 0,0 z" />
  <path
     id="path4291"
     style="font-style:normal;font-variant:normal;font-weight:normal;font-stretch:normal;font-size:17.5px;line-height:125%;font-family:Helvetica;-inkscape-font-specification:Helvetica;letter-spacing:0px;word-spacing:0px;overflow:visible;fill:#f87329;fill-opacity:1;stroke:none;stroke-width:1px;stroke-linecap:butt;stroke-linejoin:miter;stroke-opacity:1"
     d="m 15.18315,45.193003 q -0.22736,0.143155 -0.46315,0.235792 -0.22737,0.08416 -0.63158,0.159996 l -0.53895,0.101054 q -0.7579,0.134738 -1.08632,0.328419 -0.55578,0.328419 -0.55578,1.018952 0,0.614737 0.33683,0.89263 0.34527,0.269476 0.83369,0.269476 0.77474,0 1.42316,-0.454741 0.65685,-0.454741 0.6821,-1.658948 l 0,-0.89263 z m -1.45684,-1.120005 q 0.66527,-0.08426 0.95159,-0.210523 0.51368,-0.21895 0.51368,-0.682107 0,-0.564211 -0.3958,-0.774734 -0.38736,-0.218949 -1.14525,-0.218949 -0.85053,0 -1.20422,0.421056 -0.25263,0.311577 -0.33684,0.842103 l -2.31579,0 q 0.0758,-1.204207 0.67368,-1.978948 0.95158,-1.212631 3.26737,-1.212631 1.50738,0 2.6779,0.597894 1.17052,0.597895 1.17052,2.25684 l 0,4.210525 q 0,0.437899 0.0168,1.061053 0.0252,0.471583 0.14317,0.640006 0.11789,0.168422 0.35368,0.277892 l 0,0.353688 -2.61053,0 q -0.10948,-0.277903 -0.15158,-0.52211 -0.0421,-0.244208 -0.0674,-0.555785 -0.49685,0.538942 -1.14527,0.917888 -0.77473,0.446315 -1.75157,0.446315 -1.24632,0 -2.06317,-0.707365 -0.80841,-0.715791 -0.80841,-2.021051 0,-1.692633 1.30526,-2.450524 0.71579,-0.412631 2.10526,-0.589479 l 0.81684,-0.101054 z m 0.12632,-3.839997 0,0 z" />
  <path
     id="path4293"
     style="font-style:normal;font-variant:normal;font-weight:normal;font-stretch:normal;font-size:17.5px;line-height:125%;font-family:Helvetica;-inkscape-font-specification:Helvetica;letter-spacing:0px;word-spacing:0px;overflow:visible;fill:#f87329;fill-opacity:1;stroke:none;stroke-width:1px;stroke-linecap:butt;stroke-linejoin:miter;stroke-opacity:1"
     d="m 24.70737,40.258265 q 0.0674,0 0.10947,0.0084 0.0506,0 0.21052,0.0084 l 0,2.458946 q -0.22736,-0.02523 -0.4042,-0.0337 -0.17685,-0.0089 -0.28632,-0.0089 -1.44843,0 -1.94527,0.943156 -0.27789,0.530527 -0.27789,1.63368 l 0,4.387374 -2.41684,0 0,-9.178951 2.29053,0 0,1.600003 q 0.55578,-0.917898 0.96841,-1.25474 0.67369,-0.56421 1.75159,-0.56421 z" />
  <path
     id="path4295"
     style="font-style:normal;font-variant:normal;font-weight:normal;font-stretch:normal;font-size:17.5px;line-height:125%;font-family:Helvetica;-inkscape-font-specification:Helvetica;letter-spacing:0px;word-spacing:0px;overflow:visible;fill:#f87329;fill-opacity:1;stroke:none;stroke-width:1px;stroke-linecap:butt;stroke-linejoin:miter;stroke-opacity:1"
     d="m 28.89262,39.382475 -2.43368,0 0,-2.214737 2.43368,0 0,2.214737 z m -2.43368,1.094737 2.43368,0 0,9.178951 -2.43368,0 0,-9.178951 z" />
  <path
     id="path4297"
     style="font-style:normal;font-variant:normal;font-weight:normal;font-stretch:normal;font-size:17.5px;line-height:125%;font-family:Helvetica;-inkscape-font-specification:Helvetica;letter-spacing:0px;word-spacing:0px;overflow:visible;fill:#f87329;fill-opacity:1;stroke:none;stroke-width:1px;stroke-linecap:butt;stroke-linejoin:miter;stroke-opacity:1"
     d="m 36.29473,40.258265 q 1.42317,0 2.32422,0.749473 0.90947,0.741053 0.90947,2.467365 l 0,6.18106 -2.45894,0 0,-5.583165 q 0,-0.724207 -0.19369,-1.111579 -0.35368,-0.707365 -1.34737,-0.707365 -1.22105,0 -1.67579,1.035794 -0.2358,0.547368 -0.2358,1.397888 l 0,4.968427 -2.39157,0 0,-9.16211 2.31579,0 0,1.338944 q 0.46316,-0.707364 0.87579,-1.018943 0.74106,-0.555789 1.87789,-0.555789 z m -0.88421,-0.02527 0,0 z" />
  <path
     id="path4299"
     style="font-style:normal;font-variant:normal;font-weight:normal;font-stretch:normal;font-size:17.5px;line-height:125%;font-family:Helvetica;-inkscape-font-specification:Helvetica;letter-spacing:0px;word-spacing:0px;overflow:visible;fill:#f87329;fill-opacity:1;stroke:none;stroke-width:1px;stroke-linecap:butt;stroke-linejoin:miter;stroke-opacity:1"
     d="m 45.69264,47.685628 q 0.8421,0 1.42315,-0.63157 0.58105,-0.640006 0.58105,-2.029477 0,-1.305261 -0.55579,-1.987367 -0.54737,-0.682107 -1.47368,-0.682107 -1.26316,0 -1.74316,1.187365 -0.25263,0.63158 -0.25263,1.557894 0,0.800002 0.26947,1.423166 0.48843,1.162096 1.75159,1.162096 z m -0.5979,-7.427363 q 0.69052,0 1.20421,0.210526 0.87578,0.362105 1.41474,1.330526 l 0,-1.322105 2.33263,0 0,8.707367 q 0,1.776844 -0.5979,2.6779 -1.02737,1.549468 -3.94105,1.549468 -1.76,0 -2.87158,-0.690523 -1.11158,-0.690532 -1.22947,-2.063162 l 2.61053,0 q 0.10105,0.421057 0.32841,0.606322 0.38738,0.328419 1.30526,0.328419 1.29685,0 1.73475,-0.867372 0.28631,-0.555784 0.28631,-1.869471 l 0,-0.589479 q -0.34526,0.589479 -0.74105,0.884214 -0.71579,0.547368 -1.86106,0.547368 -1.76842,0 -2.82947,-1.237891 -1.05263,-1.246317 -1.05263,-3.368422 0,-2.04632 1.01895,-3.435791 1.01895,-1.397894 2.88842,-1.397894 z m 0.76632,-0.02527 0,0 z" />
  <path
     id="path4301"
     style="font-style:normal;font-variant:normal;font-weight:normal;font-stretch:normal;font-size:17.5px;line-height:125%;font-family:Helvetica;-inkscape-font-specification:Helvetica;letter-spacing:0px;word-spacing:0px;overflow:visible;fill:#f87329;fill-opacity:1;stroke:none;stroke-width:1px;stroke-linecap:butt;stroke-linejoin:miter;stroke-opacity:1"
     d="m 65.69264,42.018262 0,2.214742 -9.12,0 0,-2.214742 z m 0,3.932633 0,2.214742 -9.12,0 0,-2.214742 z" />
  <path
     id="path4303"
     style="font-style:normal;font-variant:normal;font-weight:normal;font-stretch:normal;font-size:17.5px;line-height:125%;font-family:Helvetica;-inkscape-font-specification:Helvetica;letter-spacing:0px;word-spacing:0px;overflow:visible;fill:#f87329;fill-opacity:1;stroke:none;stroke-width:1px;stroke-linecap:butt;stroke-linejoin:miter;stroke-opacity:1"
     d="m 73.80211,46.725629 q 0.0758,0.640006 0.32842,0.909482 0.44631,0.48 1.65052,0.48 0.70738,0 1.12001,-0.210534 0.42104,-0.210523 0.42104,-0.631579 0,-0.404205 -0.33683,-0.614738 -0.33685,-0.210523 -2.50105,-0.724207 -1.55791,-0.387372 -2.1979,-0.968415 -0.64,-0.572637 -0.64,-1.650532 0,-1.271576 0.99368,-2.181052 1.0021,-0.917895 2.81263,-0.917895 1.7179,0 2.7958,0.690527 1.08631,0.682104 1.2463,2.366319 l -2.39999,0 q -0.0506,-0.463157 -0.26105,-0.732633 -0.39579,-0.488425 -1.34737,-0.488425 -0.78316,0 -1.12,0.244207 -0.32843,0.244218 -0.32843,0.572637 0,0.412631 0.35369,0.597896 0.35369,0.193681 2.50105,0.665264 1.43158,0.336835 2.14737,1.018942 0.70737,0.690532 0.70737,1.726317 0,1.364213 -1.01894,2.231584 -1.01053,0.858945 -3.13264,0.858945 -2.16421,0 -3.2,-0.909472 -1.02737,-0.917898 -1.02737,-2.332638 l 2.43369,0 z m 1.83579,-6.492628 0,0 z" />
  <path
     id="path4305"
     style="font-style:normal;font-variant:normal;font-weight:normal;font-stretch:normal;font-size:17.5px;line-height:125%;font-family:Helvetica;-inkscape-font-specification:Helvetica;letter-spacing:0px;word-spacing:0px;overflow:visible;fill:#f87329;fill-opacity:1;stroke:none;stroke-width:1px;stroke-linecap:butt;stroke-linejoin:miter;stroke-opacity:1"
     d="m 86.59368,40.241422 q 0.85053,0 1.54105,0.294737 0.69895,0.294737 1.14527,0.901053 0.37894,0.513681 0.46316,1.06105 0.0843,0.538952 0.0843,1.768427 l 0,5.389474 -2.45053,0 0,-5.583165 q 0,-0.74105 -0.25263,-1.195791 -0.32842,-0.639996 -1.24632,-0.639996 -0.95157,0 -1.44841,0.639996 -0.48843,0.63158 -0.48843,1.810529 l 0,4.968427 -2.39158,0 0,-12.37053 2.39158,0 0,4.387369 q 0.52211,-0.800001 1.20422,-1.11158 0.69052,-0.32 1.44841,-0.32 z" />
  <path
     id="path4307"
     style="font-style:normal;font-variant:normal;font-weight:normal;font-stretch:normal;font-size:17.5px;line-height:125%;font-family:Helvetica;-inkscape-font-specification:Helvetica;letter-spacing:0px;word-spacing:0px;overflow:visible;fill:#f87329;fill-opacity:1;stroke:none;stroke-width:1px;stroke-linecap:butt;stroke-linejoin:miter;stroke-opacity:1"
     d="m 97.13685,45.193003 q -0.22738,0.143155 -0.46317,0.235792 -0.22736,0.08416 -0.63157,0.159996 l -0.53895,0.101054 q -0.75789,0.134738 -1.08631,0.328419 -0.5558,0.328419 -0.5558,1.018952 0,0.614737 0.33685,0.89263 0.34526,0.269476 0.83368,0.269476 0.77474,0 1.42316,-0.454741 0.65684,-0.454741 0.68211,-1.658948 l 0,-0.89263 z M 95.68,44.072998 q 0.66526,-0.08426 0.95158,-0.210523 0.51368,-0.21895 0.51368,-0.682107 0,-0.564211 -0.39578,-0.774734 -0.38738,-0.218949 -1.14527,-0.218949 -0.85053,0 -1.2042,0.421056 -0.25264,0.311577 -0.33685,0.842103 l -2.31579,0 q 0.0758,-1.204207 0.67369,-1.978948 0.95158,-1.212631 3.26736,-1.212631 1.50737,0 2.67789,0.597894 1.17054,0.597895 1.17054,2.25684 l 0,4.210525 q 0,0.437899 0.0169,1.061053 0.0252,0.471583 0.14315,0.640006 0.1179,0.168422 0.35369,0.277892 l 0,0.353688 -2.61053,0 q -0.10947,-0.277903 -0.15158,-0.52211 -0.0421,-0.244208 -0.0674,-0.555785 -0.49684,0.538942 -1.14526,0.917888 -0.77474,0.446315 -1.75158,0.446315 -1.24632,0 -2.06315,-0.707365 -0.80843,-0.715791 -0.80843,-2.021051 0,-1.692633 1.30527,-2.450524 0.71578,-0.412631 2.10526,-0.589479 l 0.81684,-0.101054 z m 0.12632,-3.839997 0,0 z" />
  <path
     id="path4309"
     style="font-style:normal;font-variant:normal;font-weight:normal;font-stretch:normal;font-size:17.5px;line-height:125%;font-family:Helvetica;-inkscape-font-specification:Helvetica;letter-spacing:0px;word-spacing:0px;overflow:visible;fill:#f87329;fill-opacity:1;stroke:none;stroke-width:1px;stroke-linecap:butt;stroke-linejoin:miter;stroke-opacity:1"
     d="m 106.66105,40.258265 q 0.0674,0 0.10948,0.0084 0.0506,0 0.21053,0.0084 l 0,2.458946 q -0.22737,-0.02523 -0.40422,-0.0337 -0.17684,-0.0089 -0.28631,-0.0089 -1.44842,0 -1.94526,0.943156 -0.2779,0.530527 -0.2779,1.63368 l 0,4.387374 -2.41685,0 0,-9.178951 2.29053,0 0,1.600003 q 0.5558,-0.917898 0.96843,-1.25474 0.67368,-0.56421 1.75157,-0.56421 z" />
  <path
     id="path4311"
     style="font-style:normal;font-variant:normal;font-weight:normal;font-stretch:normal;font-size:17.5px;line-height:125%;font-family:Helvetica;-inkscape-font-specification:Helvetica;letter-spacing:0px;word-spacing:0px;overflow:visible;fill:#f87329;fill-opacity:1;stroke:none;stroke-width:1px;stroke-linecap:butt;stroke-linejoin:miter;stroke-opacity:1"
     d="m 110.84632,39.382475 -2.43368,0 0,-2.214737 2.43368,0 0,2.214737 z m -2.43368,1.094737 2.43368,0 0,9.178951 -2.43368,0 0,-9.178951 z" />
  <path
     id="path4313"
     style="font-style:normal;font-variant:normal;font-weight:normal;font-stretch:normal;font-size:17.5px;line-height:125%;font-family:Helvetica;-inkscape-font-specification:Helvetica;letter-spacing:0px;word-spacing:0px;overflow:visible;fill:#f87329;fill-opacity:1;stroke:none;stroke-width:1px;stroke-linecap:butt;stroke-linejoin:miter;stroke-opacity:1"
     d="m 118.24842,40.258265 q 1.42316,0 2.32421,0.749473 0.90947,0.741053 0.90947,2.467365 l 0,6.18106 -2.45894,0 0,-5.583165 q 0,-0.724207 -0.19369,-1.111579 -0.35368,-0.707365 -1.34736,-0.707365 -1.22106,0 -1.67579,1.035794 -0.23579,0.547368 -0.23579,1.397888 l 0,4.968427 -2.39158,0 0,-9.16211 2.31578,0 0,1.338944 q 0.46317,-0.707364 0.8758,-1.018943 0.74105,-0.555789 1.87789,-0.555789 z m -0.88421,-0.02527 0,0 z" />
  <path
     id="path4315"
     style="font-style:normal;font-variant:normal;font-weight:normal;font-stretch:normal;font-size:17.5px;line-height:125%;font-family:Helvetica;-inkscape-font-specification:Helvetica;letter-spacing:0px;word-spacing:0px;overflow:visible;fill:#f87329;fill-opacity:1;stroke:none;stroke-width:1px;stroke-linecap:butt;stroke-linejoin:miter;stroke-opacity:1"
     d="m 127.64632,47.685628 q 0.8421,0 1.42316,-0.63157 0.58105,-0.640006 0.58105,-2.029477 0,-1.305261 -0.5558,-1.987367 -0.54736,-0.682107 -1.47368,-0.682107 -1.26316,0 -1.74316,1.187365 -0.25262,0.63158 -0.25262,1.557894 0,0.800002 0.26947,1.423166 0.48842,1.162096 1.75158,1.162096 z m -0.59789,-7.427363 q 0.69052,0 1.2042,0.210526 0.87579,0.362105 1.41474,1.330526 l 0,-1.322105 2.33263,0 0,8.707367 q 0,1.776844 -0.5979,2.6779 -1.02736,1.549468 -3.94104,1.549468 -1.76001,0 -2.87159,-0.690523 -1.11157,-0.690532 -1.22947,-2.063162 l 2.61053,0 q 0.10105,0.421057 0.32842,0.606322 0.38737,0.328419 1.30526,0.328419 1.29684,0 1.73474,-0.867372 0.28631,-0.555784 0.28631,-1.869471 l 0,-0.589479 q -0.34526,0.589479 -0.74105,0.884214 -0.71579,0.547368 -1.86105,0.547368 -1.76842,0 -2.82947,-1.237891 -1.05264,-1.246317 -1.05264,-3.368422 0,-2.04632 1.01895,-3.435791 1.01894,-1.397894 2.88843,-1.397894 z m 0.76631,-0.02527 0,0 z" />
</svg>
